<mxfile host="app.diagrams.net" agent="Mozilla/5.0 (Windows NT 10.0; Win64; x64) AppleWebKit/537.36 (KHTML, like Gecko) Chrome/134.0.0.0 Safari/537.36 Edg/134.0.0.0" version="26.1.3">
  <diagram id="prtHgNgQTEPvFCAcTncT" name="Page-1">
    <mxGraphModel dx="3021" dy="1202" grid="1" gridSize="10" guides="1" tooltips="1" connect="1" arrows="1" fold="1" page="1" pageScale="1" pageWidth="827" pageHeight="1169" math="0" shadow="0">
      <root>
        <mxCell id="0" />
        <mxCell id="1" parent="0" />
        <mxCell id="mpYMDAcpPHab6vFgOQOF-30" style="edgeStyle=orthogonalEdgeStyle;rounded=0;orthogonalLoop=1;jettySize=auto;html=1;exitX=0.5;exitY=1;exitDx=0;exitDy=0;entryX=0.5;entryY=0;entryDx=0;entryDy=0;" edge="1" parent="1" source="mpYMDAcpPHab6vFgOQOF-1" target="mpYMDAcpPHab6vFgOQOF-2">
          <mxGeometry relative="1" as="geometry" />
        </mxCell>
        <mxCell id="mpYMDAcpPHab6vFgOQOF-32" style="edgeStyle=orthogonalEdgeStyle;rounded=0;orthogonalLoop=1;jettySize=auto;html=1;exitX=0.5;exitY=1;exitDx=0;exitDy=0;entryX=0.5;entryY=0;entryDx=0;entryDy=0;" edge="1" parent="1" source="mpYMDAcpPHab6vFgOQOF-1" target="mpYMDAcpPHab6vFgOQOF-3">
          <mxGeometry relative="1" as="geometry" />
        </mxCell>
        <mxCell id="mpYMDAcpPHab6vFgOQOF-1" value="&lt;p class=&quot;MsoNormal&quot;&gt;&lt;span style=&quot;font-family: 宋体; color: rgb(51, 51, 51);&quot;&gt;&lt;font&gt;&lt;font style=&quot;&quot; face=&quot;宋体&quot;&gt;视网灵眸&lt;/font&gt;&lt;font style=&quot;&quot; face=&quot;宋体&quot;&gt;——智能化视网膜筛查与影像分析系统&lt;/font&gt;&lt;/font&gt;&lt;/span&gt;&lt;/p&gt;" style="rounded=0;whiteSpace=wrap;html=1;labelBackgroundColor=none;" vertex="1" parent="1">
          <mxGeometry x="261" y="50" width="306" height="40" as="geometry" />
        </mxCell>
        <mxCell id="mpYMDAcpPHab6vFgOQOF-34" style="edgeStyle=orthogonalEdgeStyle;rounded=0;orthogonalLoop=1;jettySize=auto;html=1;exitX=0.5;exitY=1;exitDx=0;exitDy=0;entryX=0.5;entryY=0;entryDx=0;entryDy=0;" edge="1" parent="1" source="mpYMDAcpPHab6vFgOQOF-2" target="mpYMDAcpPHab6vFgOQOF-9">
          <mxGeometry relative="1" as="geometry" />
        </mxCell>
        <mxCell id="mpYMDAcpPHab6vFgOQOF-36" style="edgeStyle=orthogonalEdgeStyle;rounded=0;orthogonalLoop=1;jettySize=auto;html=1;exitX=0.5;exitY=1;exitDx=0;exitDy=0;" edge="1" parent="1" source="mpYMDAcpPHab6vFgOQOF-2" target="mpYMDAcpPHab6vFgOQOF-10">
          <mxGeometry relative="1" as="geometry" />
        </mxCell>
        <mxCell id="mpYMDAcpPHab6vFgOQOF-2" value="系统功能架构" style="rounded=0;whiteSpace=wrap;html=1;labelBackgroundColor=none;" vertex="1" parent="1">
          <mxGeometry y="160" width="120" height="40" as="geometry" />
        </mxCell>
        <mxCell id="mpYMDAcpPHab6vFgOQOF-74" style="edgeStyle=orthogonalEdgeStyle;rounded=0;orthogonalLoop=1;jettySize=auto;html=1;exitX=0.5;exitY=1;exitDx=0;exitDy=0;" edge="1" parent="1" source="mpYMDAcpPHab6vFgOQOF-3" target="mpYMDAcpPHab6vFgOQOF-6">
          <mxGeometry relative="1" as="geometry" />
        </mxCell>
        <mxCell id="mpYMDAcpPHab6vFgOQOF-76" style="edgeStyle=orthogonalEdgeStyle;rounded=0;orthogonalLoop=1;jettySize=auto;html=1;exitX=0.5;exitY=1;exitDx=0;exitDy=0;entryX=0.5;entryY=0;entryDx=0;entryDy=0;" edge="1" parent="1" source="mpYMDAcpPHab6vFgOQOF-3" target="mpYMDAcpPHab6vFgOQOF-7">
          <mxGeometry relative="1" as="geometry" />
        </mxCell>
        <mxCell id="mpYMDAcpPHab6vFgOQOF-78" style="edgeStyle=orthogonalEdgeStyle;rounded=0;orthogonalLoop=1;jettySize=auto;html=1;exitX=0.5;exitY=1;exitDx=0;exitDy=0;" edge="1" parent="1" source="mpYMDAcpPHab6vFgOQOF-3" target="mpYMDAcpPHab6vFgOQOF-8">
          <mxGeometry relative="1" as="geometry" />
        </mxCell>
        <mxCell id="mpYMDAcpPHab6vFgOQOF-3" value="神经网络模型" style="rounded=0;whiteSpace=wrap;html=1;labelBackgroundColor=none;" vertex="1" parent="1">
          <mxGeometry x="680" y="160" width="120" height="40" as="geometry" />
        </mxCell>
        <mxCell id="mpYMDAcpPHab6vFgOQOF-6" value="U-Net" style="rounded=0;whiteSpace=wrap;html=1;fontFamily=Times New Roman;labelBackgroundColor=none;" vertex="1" parent="1">
          <mxGeometry x="440" y="240" width="120" height="40" as="geometry" />
        </mxCell>
        <mxCell id="mpYMDAcpPHab6vFgOQOF-7" value="&lt;p class=&quot;MsoNormal&quot;&gt;&lt;span style=&quot;mso-spacerun:&#39;yes&#39;;font-family:宋体;mso-ascii-font-family:&#39;Times New Roman&#39;;&lt;br/&gt;mso-hansi-font-family:&#39;Times New Roman&#39;;mso-bidi-font-family:&#39;Times New Roman&#39;;&quot; class=&quot;10&quot;&gt;&lt;font face=&quot;Times New Roman&quot;&gt;SAM2-UNet-Attention&lt;/font&gt;&lt;/span&gt;&lt;/p&gt;" style="rounded=0;whiteSpace=wrap;html=1;fontFamily=Times New Roman;labelBackgroundColor=none;" vertex="1" parent="1">
          <mxGeometry x="680" y="240" width="120" height="40" as="geometry" />
        </mxCell>
        <mxCell id="mpYMDAcpPHab6vFgOQOF-8" value="&lt;p class=&quot;MsoNormal&quot;&gt;&lt;font&gt;LM&lt;font style=&quot;&quot;&gt;S&lt;/font&gt;FR-Net&lt;/font&gt;&lt;/p&gt;" style="rounded=0;whiteSpace=wrap;html=1;fontFamily=Times New Roman;labelBackgroundColor=none;" vertex="1" parent="1">
          <mxGeometry x="920" y="240" width="120" height="40" as="geometry" />
        </mxCell>
        <mxCell id="mpYMDAcpPHab6vFgOQOF-38" style="edgeStyle=orthogonalEdgeStyle;rounded=0;orthogonalLoop=1;jettySize=auto;html=1;exitX=0.5;exitY=1;exitDx=0;exitDy=0;entryX=0.5;entryY=0;entryDx=0;entryDy=0;" edge="1" parent="1" source="mpYMDAcpPHab6vFgOQOF-9" target="mpYMDAcpPHab6vFgOQOF-11">
          <mxGeometry relative="1" as="geometry" />
        </mxCell>
        <mxCell id="mpYMDAcpPHab6vFgOQOF-42" style="edgeStyle=orthogonalEdgeStyle;rounded=0;orthogonalLoop=1;jettySize=auto;html=1;exitX=0.5;exitY=1;exitDx=0;exitDy=0;entryX=0.5;entryY=0;entryDx=0;entryDy=0;" edge="1" parent="1" source="mpYMDAcpPHab6vFgOQOF-9" target="mpYMDAcpPHab6vFgOQOF-12">
          <mxGeometry relative="1" as="geometry" />
        </mxCell>
        <mxCell id="mpYMDAcpPHab6vFgOQOF-44" style="edgeStyle=orthogonalEdgeStyle;rounded=0;orthogonalLoop=1;jettySize=auto;html=1;exitX=0.5;exitY=1;exitDx=0;exitDy=0;entryX=0.5;entryY=0;entryDx=0;entryDy=0;" edge="1" parent="1" source="mpYMDAcpPHab6vFgOQOF-9" target="mpYMDAcpPHab6vFgOQOF-13">
          <mxGeometry relative="1" as="geometry" />
        </mxCell>
        <mxCell id="mpYMDAcpPHab6vFgOQOF-9" value="前端" style="rounded=0;whiteSpace=wrap;html=1;fontFamily=Times New Roman;labelBackgroundColor=none;" vertex="1" parent="1">
          <mxGeometry x="-260" y="240" width="120" height="40" as="geometry" />
        </mxCell>
        <mxCell id="mpYMDAcpPHab6vFgOQOF-46" style="edgeStyle=orthogonalEdgeStyle;rounded=0;orthogonalLoop=1;jettySize=auto;html=1;exitX=0.5;exitY=1;exitDx=0;exitDy=0;" edge="1" parent="1" source="mpYMDAcpPHab6vFgOQOF-10" target="mpYMDAcpPHab6vFgOQOF-14">
          <mxGeometry relative="1" as="geometry" />
        </mxCell>
        <mxCell id="mpYMDAcpPHab6vFgOQOF-48" style="edgeStyle=orthogonalEdgeStyle;rounded=0;orthogonalLoop=1;jettySize=auto;html=1;exitX=0.5;exitY=1;exitDx=0;exitDy=0;entryX=0.5;entryY=0;entryDx=0;entryDy=0;" edge="1" parent="1" source="mpYMDAcpPHab6vFgOQOF-10" target="mpYMDAcpPHab6vFgOQOF-15">
          <mxGeometry relative="1" as="geometry" />
        </mxCell>
        <mxCell id="mpYMDAcpPHab6vFgOQOF-50" style="edgeStyle=orthogonalEdgeStyle;rounded=0;orthogonalLoop=1;jettySize=auto;html=1;exitX=0.5;exitY=1;exitDx=0;exitDy=0;" edge="1" parent="1" source="mpYMDAcpPHab6vFgOQOF-10" target="mpYMDAcpPHab6vFgOQOF-16">
          <mxGeometry relative="1" as="geometry" />
        </mxCell>
        <mxCell id="mpYMDAcpPHab6vFgOQOF-10" value="后端" style="rounded=0;whiteSpace=wrap;html=1;fontFamily=Times New Roman;labelBackgroundColor=none;" vertex="1" parent="1">
          <mxGeometry x="260" y="240" width="120" height="40" as="geometry" />
        </mxCell>
        <mxCell id="mpYMDAcpPHab6vFgOQOF-52" style="edgeStyle=orthogonalEdgeStyle;rounded=0;orthogonalLoop=1;jettySize=auto;html=1;exitX=0.5;exitY=1;exitDx=0;exitDy=0;entryX=0.5;entryY=0;entryDx=0;entryDy=0;" edge="1" parent="1" source="mpYMDAcpPHab6vFgOQOF-11" target="mpYMDAcpPHab6vFgOQOF-17">
          <mxGeometry relative="1" as="geometry" />
        </mxCell>
        <mxCell id="mpYMDAcpPHab6vFgOQOF-54" style="edgeStyle=orthogonalEdgeStyle;rounded=0;orthogonalLoop=1;jettySize=auto;html=1;exitX=0.5;exitY=1;exitDx=0;exitDy=0;entryX=0.5;entryY=0;entryDx=0;entryDy=0;" edge="1" parent="1" source="mpYMDAcpPHab6vFgOQOF-11" target="mpYMDAcpPHab6vFgOQOF-18">
          <mxGeometry relative="1" as="geometry" />
        </mxCell>
        <mxCell id="mpYMDAcpPHab6vFgOQOF-56" style="edgeStyle=orthogonalEdgeStyle;rounded=0;orthogonalLoop=1;jettySize=auto;html=1;exitX=0.5;exitY=1;exitDx=0;exitDy=0;entryX=0.5;entryY=0;entryDx=0;entryDy=0;" edge="1" parent="1" source="mpYMDAcpPHab6vFgOQOF-11" target="mpYMDAcpPHab6vFgOQOF-23">
          <mxGeometry relative="1" as="geometry" />
        </mxCell>
        <mxCell id="mpYMDAcpPHab6vFgOQOF-11" value="护士端" style="rounded=0;whiteSpace=wrap;html=1;labelBackgroundColor=none;" vertex="1" parent="1">
          <mxGeometry x="-420" y="320" width="80" height="40" as="geometry" />
        </mxCell>
        <mxCell id="mpYMDAcpPHab6vFgOQOF-58" style="edgeStyle=orthogonalEdgeStyle;rounded=0;orthogonalLoop=1;jettySize=auto;html=1;exitX=0.5;exitY=1;exitDx=0;exitDy=0;entryX=0.5;entryY=0;entryDx=0;entryDy=0;" edge="1" parent="1" source="mpYMDAcpPHab6vFgOQOF-12" target="mpYMDAcpPHab6vFgOQOF-19">
          <mxGeometry relative="1" as="geometry" />
        </mxCell>
        <mxCell id="mpYMDAcpPHab6vFgOQOF-60" style="edgeStyle=orthogonalEdgeStyle;rounded=0;orthogonalLoop=1;jettySize=auto;html=1;exitX=0.5;exitY=1;exitDx=0;exitDy=0;entryX=0.5;entryY=0;entryDx=0;entryDy=0;" edge="1" parent="1" source="mpYMDAcpPHab6vFgOQOF-12" target="mpYMDAcpPHab6vFgOQOF-20">
          <mxGeometry relative="1" as="geometry" />
        </mxCell>
        <mxCell id="mpYMDAcpPHab6vFgOQOF-62" style="edgeStyle=orthogonalEdgeStyle;rounded=0;orthogonalLoop=1;jettySize=auto;html=1;exitX=0.5;exitY=1;exitDx=0;exitDy=0;entryX=0.5;entryY=0;entryDx=0;entryDy=0;" edge="1" parent="1" source="mpYMDAcpPHab6vFgOQOF-12" target="mpYMDAcpPHab6vFgOQOF-24">
          <mxGeometry relative="1" as="geometry" />
        </mxCell>
        <mxCell id="mpYMDAcpPHab6vFgOQOF-12" value="医生端" style="rounded=0;whiteSpace=wrap;html=1;labelBackgroundColor=none;" vertex="1" parent="1">
          <mxGeometry x="-240" y="320" width="80" height="40" as="geometry" />
        </mxCell>
        <mxCell id="mpYMDAcpPHab6vFgOQOF-64" style="edgeStyle=orthogonalEdgeStyle;rounded=0;orthogonalLoop=1;jettySize=auto;html=1;exitX=0.5;exitY=1;exitDx=0;exitDy=0;entryX=0.5;entryY=0;entryDx=0;entryDy=0;" edge="1" parent="1" source="mpYMDAcpPHab6vFgOQOF-13" target="mpYMDAcpPHab6vFgOQOF-21">
          <mxGeometry relative="1" as="geometry" />
        </mxCell>
        <mxCell id="mpYMDAcpPHab6vFgOQOF-66" style="edgeStyle=orthogonalEdgeStyle;rounded=0;orthogonalLoop=1;jettySize=auto;html=1;exitX=0.5;exitY=1;exitDx=0;exitDy=0;entryX=0.5;entryY=0;entryDx=0;entryDy=0;" edge="1" parent="1" source="mpYMDAcpPHab6vFgOQOF-13" target="mpYMDAcpPHab6vFgOQOF-22">
          <mxGeometry relative="1" as="geometry" />
        </mxCell>
        <mxCell id="mpYMDAcpPHab6vFgOQOF-68" style="edgeStyle=orthogonalEdgeStyle;rounded=0;orthogonalLoop=1;jettySize=auto;html=1;exitX=0.5;exitY=1;exitDx=0;exitDy=0;entryX=0.5;entryY=0;entryDx=0;entryDy=0;" edge="1" parent="1" source="mpYMDAcpPHab6vFgOQOF-13" target="mpYMDAcpPHab6vFgOQOF-25">
          <mxGeometry relative="1" as="geometry" />
        </mxCell>
        <mxCell id="mpYMDAcpPHab6vFgOQOF-13" value="管理员端" style="rounded=0;whiteSpace=wrap;html=1;labelBackgroundColor=none;" vertex="1" parent="1">
          <mxGeometry x="-60" y="320" width="80" height="40" as="geometry" />
        </mxCell>
        <mxCell id="mpYMDAcpPHab6vFgOQOF-70" style="edgeStyle=orthogonalEdgeStyle;rounded=0;orthogonalLoop=1;jettySize=auto;html=1;exitX=0.5;exitY=1;exitDx=0;exitDy=0;entryX=0.5;entryY=0;entryDx=0;entryDy=0;" edge="1" parent="1" source="mpYMDAcpPHab6vFgOQOF-14" target="mpYMDAcpPHab6vFgOQOF-26">
          <mxGeometry relative="1" as="geometry" />
        </mxCell>
        <mxCell id="mpYMDAcpPHab6vFgOQOF-72" style="edgeStyle=orthogonalEdgeStyle;rounded=0;orthogonalLoop=1;jettySize=auto;html=1;exitX=0.5;exitY=1;exitDx=0;exitDy=0;entryX=0.5;entryY=0;entryDx=0;entryDy=0;" edge="1" parent="1" source="mpYMDAcpPHab6vFgOQOF-14" target="mpYMDAcpPHab6vFgOQOF-27">
          <mxGeometry relative="1" as="geometry" />
        </mxCell>
        <mxCell id="mpYMDAcpPHab6vFgOQOF-14" value="云服务器部署模型" style="rounded=0;whiteSpace=wrap;html=1;labelBackgroundColor=none;" vertex="1" parent="1">
          <mxGeometry x="80" y="320" width="120" height="40" as="geometry" />
        </mxCell>
        <mxCell id="mpYMDAcpPHab6vFgOQOF-15" value="多API接入的AI对话系统" style="rounded=0;whiteSpace=wrap;html=1;labelBackgroundColor=none;" vertex="1" parent="1">
          <mxGeometry x="255" y="320" width="130" height="40" as="geometry" />
        </mxCell>
        <mxCell id="mpYMDAcpPHab6vFgOQOF-16" value="SQLite数据库" style="rounded=0;whiteSpace=wrap;html=1;labelBackgroundColor=none;" vertex="1" parent="1">
          <mxGeometry x="440" y="320" width="120" height="40" as="geometry" />
        </mxCell>
        <mxCell id="mpYMDAcpPHab6vFgOQOF-17" value="病人信息录入" style="rounded=0;whiteSpace=wrap;html=1;labelBackgroundColor=none;" vertex="1" parent="1">
          <mxGeometry x="-470" y="400" width="40" height="120" as="geometry" />
        </mxCell>
        <mxCell id="mpYMDAcpPHab6vFgOQOF-18" value="病人信息修改与查询" style="rounded=0;whiteSpace=wrap;html=1;labelBackgroundColor=none;" vertex="1" parent="1">
          <mxGeometry x="-400" y="400" width="40" height="120" as="geometry" />
        </mxCell>
        <mxCell id="mpYMDAcpPHab6vFgOQOF-19" value="病人症状诊断" style="rounded=0;whiteSpace=wrap;html=1;labelBackgroundColor=none;" vertex="1" parent="1">
          <mxGeometry x="-280" y="400" width="40" height="120" as="geometry" />
        </mxCell>
        <mxCell id="mpYMDAcpPHab6vFgOQOF-20" value="AI医学对话" style="rounded=0;whiteSpace=wrap;html=1;labelBackgroundColor=none;" vertex="1" parent="1">
          <mxGeometry x="-220" y="400" width="40" height="120" as="geometry" />
        </mxCell>
        <mxCell id="mpYMDAcpPHab6vFgOQOF-21" value="护士与医生账号管理" style="rounded=0;whiteSpace=wrap;html=1;labelBackgroundColor=none;" vertex="1" parent="1">
          <mxGeometry x="-100" y="400" width="40" height="120" as="geometry" />
        </mxCell>
        <mxCell id="mpYMDAcpPHab6vFgOQOF-22" value="病人信息修改与查询" style="rounded=0;whiteSpace=wrap;html=1;labelBackgroundColor=none;" vertex="1" parent="1">
          <mxGeometry x="-40" y="400" width="40" height="120" as="geometry" />
        </mxCell>
        <mxCell id="mpYMDAcpPHab6vFgOQOF-23" value="护士个人信息管理" style="rounded=0;whiteSpace=wrap;html=1;labelBackgroundColor=none;" vertex="1" parent="1">
          <mxGeometry x="-333" y="400" width="40" height="120" as="geometry" />
        </mxCell>
        <mxCell id="mpYMDAcpPHab6vFgOQOF-24" value="医生个人信息管理" style="rounded=0;whiteSpace=wrap;html=1;labelBackgroundColor=none;" vertex="1" parent="1">
          <mxGeometry x="-160" y="400" width="40" height="120" as="geometry" />
        </mxCell>
        <mxCell id="mpYMDAcpPHab6vFgOQOF-25" value="管理员个人信息管理" style="rounded=0;whiteSpace=wrap;html=1;labelBackgroundColor=none;" vertex="1" parent="1">
          <mxGeometry x="20" y="400" width="40" height="120" as="geometry" />
        </mxCell>
        <mxCell id="mpYMDAcpPHab6vFgOQOF-26" value="图像增强" style="rounded=0;whiteSpace=wrap;html=1;labelBackgroundColor=none;" vertex="1" parent="1">
          <mxGeometry x="80" y="400" width="40" height="120" as="geometry" />
        </mxCell>
        <mxCell id="mpYMDAcpPHab6vFgOQOF-27" value="图像分割模型" style="rounded=0;whiteSpace=wrap;html=1;labelBackgroundColor=none;" vertex="1" parent="1">
          <mxGeometry x="160" y="400" width="40" height="120" as="geometry" />
        </mxCell>
      </root>
    </mxGraphModel>
  </diagram>
</mxfile>
